Coordinates
version=1
nRows=14
nColumns=40
inDegrees=yes

Units are S.I. units (second, meters, Newtons, ...)
Angles are in degrees.

endheader
time	pelvis_tilt	pelvis_list	pelvis_rotation	pelvis_tx	pelvis_ty	pelvis_tz	hip_flexion_r	hip_adduction_r	hip_rotation_r	knee_angle_r	knee_angle_r_beta	ankle_angle_r	subtalar_angle_r	mtp_angle_r	hip_flexion_l	hip_adduction_l	hip_rotation_l	knee_angle_l	knee_angle_l_beta	ankle_angle_l	subtalar_angle_l	mtp_angle_l	lumbar_extension	lumbar_bending	lumbar_rotation	arm_flex_r	arm_add_r	arm_rot_r	elbow_flex_r	pro_sup_r	wrist_flex_r	wrist_dev_r	arm_flex_l	arm_add_l	arm_rot_l	elbow_flex_l	pro_sup_l	wrist_flex_l	wrist_dev_l
      0.00000000	      2.57532906	     -0.26307828	     -0.96213097	     -1.14143384	      0.90018373	      0.96896739	     23.59473616	     -2.93339292	     -7.21729057	    -43.02581807	     -0.75094219	      0.60475439	    -11.03970457	     -0.03719281	     -8.05447945	     -4.94530288	     11.43085679	     -9.12653467	     -0.15928808	      5.40544173	    -12.21093048	     -3.36026033	    -11.48122707	      0.81075312	     -6.04374510	      2.14150486	     -8.97779146	     13.21034932	     15.90937595	     89.95437384	      0.00000000	      0.00000000	     13.29342992	     13.09858798	    -20.07355471	     23.99209174	     89.95437384	      0.00000000	      0.00000000
      0.01000000	      2.22496505	      0.09094548	     -0.79892974	     -1.13289474	      0.89879185	      0.96955044	     24.57068491	     -3.23444484	     -7.81534948	    -40.79709060	     -0.71204356	      0.69420005	    -10.64415671	      0.05953864	     -8.26901478	     -5.24082765	     11.39895231	     -9.16120998	     -0.15989328	      5.56705494	    -12.27083892	     -3.40479454	    -11.07613882	      0.35186255	     -6.09498550	      1.71335648	     -8.92748333	     13.19468082	     15.94829695	     89.95437384	      0.00000000	      0.00000000	     14.06645709	     13.35017677	    -19.78349533	     24.67889491	     89.95437384	      0.00000000	      0.00000000
      0.02000000	      2.61630403	     -0.19421847	     -0.12494510	     -1.12382812	      0.89871403	      0.96969336	     24.12688308	     -3.08479720	     -9.42881042	    -37.69137619	     -0.65783861	      0.17298108	     -9.58247828	      0.26144054	     -9.45985151	     -4.74036562	     10.90359563	     -8.93536274	     -0.15595150	      5.50625786	    -12.98678157	     -3.56525473	    -11.54613539	      0.68806743	     -6.67135633	      1.49254137	     -8.89797650	     13.07111988	     15.95735954	     89.95437384	      0.00000000	      0.00000000	     14.69673700	     13.57396737	    -18.98814821	     25.65174932	     89.95437384	      0.00000000	      0.00000000
      0.03000000	      2.23636665	      0.26756226	     -0.12200746	     -1.11516863	      0.89699111	      0.97039394	     25.09551994	     -3.50064866	    -10.30719589	    -35.48452859	     -0.61932186	      0.21677085	     -9.23887452	      0.34846461	     -9.64171107	     -5.17189996	     11.00117074	     -8.99710276	     -0.15702907	      5.70654846	    -12.97199700	     -3.59662555	    -11.11970314	      0.10064612	     -6.52062399	      1.04369525	     -8.88995502	     13.05901695	     16.01031750	     89.95437384	      0.00000000	      0.00000000	     15.43434596	     13.74654165	    -18.71489406	     26.34845664	     89.95437384	      0.00000000	      0.00000000
      0.04000000	      2.44438531	      0.08290022	      0.60054806	     -1.10631842	      0.89648128	      0.97028890	     24.77764559	     -3.51722954	    -12.19648709	    -32.38795172	     -0.56527640	     -0.87012628	     -7.67138458	      0.52331902	    -10.47979979	     -4.75526401	     10.49247976	     -9.00124846	     -0.15710142	      5.72938328	    -13.47926299	     -3.78554712	    -11.44465043	      0.36241036	     -7.09345784	      0.78852496	     -8.88333550	     12.84170479	     16.11040921	     89.95437384	      0.00000000	      0.00000000	     16.07374434	     13.87309433	    -17.99143528	     27.28923530	     89.95437384	      0.00000000	      0.00000000
      0.05000000	      2.49892438	      0.23214775	      0.96117866	     -1.09741773	      0.89544871	      0.97054809	     24.82884620	     -3.79864858	    -13.95780730	    -29.73299151	     -0.51893860	     -1.36913038	     -6.20293852	      0.59813355	    -11.10248705	     -4.72999064	     10.39535984	     -9.16710251	     -0.15999612	      5.69808432	    -13.91839352	     -4.01146319	    -11.57622126	      0.20512070	     -7.32293533	      0.46560060	     -8.87297088	     12.53065296	     16.28631949	     89.95437384	      0.00000000	      0.00000000	     16.69239762	     13.91863885	    -17.05971350	     28.15591056	     89.95437384	      0.00000000	      0.00000000
      0.06000000	      2.09458729	      0.68475517	      0.88670114	     -1.08863186	      0.89339843	      0.97132922	     25.73775536	     -4.16497839	    -15.01877900	    -27.79401867	     -0.48509714	     -1.36305789	     -5.98359754	      0.67230723	    -11.27102288	     -5.17436601	     10.47582406	     -9.19287843	     -0.16044600	      5.89831545	    -13.95681708	     -4.06222711	    -11.15597312	     -0.37844820	     -7.05047374	      0.10867469	     -8.86110925	     12.51735665	     16.23357366	     89.95437384	      0.00000000	      0.00000000	     17.35770573	     14.00623596	    -16.91399858	     28.83382097	     89.95437384	      0.00000000	      0.00000000
      0.07000000	      1.72012159	      0.89315201	      1.41314463	     -1.08005067	      0.89166423	      0.97156373	     26.08688763	     -4.35174925	    -16.21322684	    -25.06834919	     -0.43752523	     -2.29267262	     -4.82735286	      0.78076840	    -11.25027516	     -5.18958429	      9.98730019	     -9.60728618	     -0.16767878	      5.97029893	    -14.05777367	     -4.16532683	    -10.86456570	     -0.60355591	     -7.46694404	     -0.26330327	     -8.82610760	     12.31341329	     16.57007003	     89.95437384	      0.00000000	      0.00000000	     17.86037296	     14.23530887	    -16.77862410	     29.75484426	     89.95437384	      0.00000000	      0.00000000
      0.08000000	      2.15841640	      0.53323683	      2.08878207	     -1.07067862	      0.89109233	      0.97177457	     25.41147315	     -4.27693044	    -19.15732239	    -22.63269887	     -0.39501511	     -2.87584888	     -2.57417507	      0.55770142	    -12.13422595	     -4.46201200	      9.70312123	    -10.13949836	     -0.17696763	      6.33756210	    -14.54340060	     -4.61200731	    -11.43166044	     -0.13340661	     -7.77202339	     -0.39225724	     -8.75716094	     11.64958111	     16.37163806	     89.95437384	      0.00000000	      0.00000000	     18.44616407	     14.23030830	    -16.40462038	     30.70186589	     89.95437384	      0.00000000	      0.00000000
      0.09000000	      1.78427692	      0.76286382	      2.29131430	     -1.06176694	      0.88914006	      0.97254967	     25.92480046	     -4.36487638	    -20.09183956	    -20.69536529	     -0.36120226	     -2.92312446	     -1.71351129	      0.47859999	    -12.18323816	     -4.55740818	      9.41044654	    -10.47428927	     -0.18281083	      6.41078141	    -14.62510790	     -4.73127428	    -11.11820602	     -0.42988109	     -7.71454028	     -0.69310670	     -8.71857804	     11.53340379	     16.41774619	     89.95437384	      0.00000000	      0.00000000	     18.95989719	     14.28450088	    -16.22610521	     31.52693569	     89.95437384	      0.00000000	      0.00000000
      0.10000000	      1.98906257	      0.47474359	      2.79125912	     -1.05221802	      0.88813370	      0.97317734	     25.55527811	     -4.17302854	    -22.46795892	    -18.83573230	     -0.32874555	     -3.02378071	      0.39435688	     -0.03782715	    -12.74857916	     -3.91969148	      9.30034901	    -11.11172410	     -0.19393617	      6.75112763	    -15.00186929	     -5.17643517	    -11.39236951	     -0.07296553	     -7.86610514	     -0.79026574	     -8.63559904	     11.16150774	     16.18285900	     89.95437384	      0.00000000	      0.00000000	     19.41570374	     14.26128106	    -15.93253004	     32.38469522	     89.95437384	      0.00000000	      0.00000000
      0.11000000	      1.81519333	      0.49708547	      3.18693121	     -1.04298724	      0.88650835	      0.97370467	     25.69421671	     -4.12039059	    -23.68352389	    -17.32504252	     -0.30237904	     -2.74244288	      1.49871846	     -0.39040699	    -12.89614612	     -3.71182632	      8.93252344	    -11.71527603	     -0.20447014	      6.77670862	    -15.16051543	     -5.41710603	    -11.27551843	     -0.07907753	     -7.91824543	     -0.95392884	     -8.60342922	     11.09816679	     16.02415085	     89.95437384	      0.00000000	      0.00000000	     19.80184390	     14.24451704	    -15.75917654	     33.25033182	     89.95437384	      0.00000000	      0.00000000
      0.12000000	      1.72405267	      0.44546508	      3.56561796	     -1.03328544	      0.88506068	      0.97440045	     25.69521285	     -3.98368089	    -24.88696082	    -16.17554559	     -0.28231653	     -2.45435528	      2.44923106	     -0.74831951	    -13.16346786	     -3.38114495	      8.67894431	    -12.32951899	     -0.21519070	      6.92047311	    -15.31609655	     -5.64122223	    -11.20786557	      0.00228852	     -7.96054521	     -1.09190029	     -8.56271470	     11.07738692	     15.83314675	     89.95437384	      0.00000000	      0.00000000	     20.06846381	     14.21726242	    -15.55918453	     34.09967183	     89.95437384	      0.00000000	      0.00000000
      0.13000000	      1.81079481	      0.36889866	      3.98697636	     -1.02301010	      0.88390569	      0.97468763	     25.53440863	     -4.08501125	    -26.81933718	    -15.73916972	     -0.27470033	     -2.31939558	      4.76755432	     -2.40369819	    -13.64597913	     -3.00727652	      8.63140471	    -12.89192491	     -0.22500654	      6.73511902	    -15.69464306	     -6.53861827	    -11.27836184	      0.17454910	     -7.98133290	     -1.25476837	     -8.60811371	     11.23920967	     15.60811004	     89.95437384	      0.00000000	      0.00000000	     20.25910386	     13.98374108	    -15.02340012	     34.86295678	     89.95437384	      0.00000000	      0.00000000
